<svg width="24" height="24" viewBox="0 0 24 24" fill="none" xmlns="http://www.w3.org/2000/svg">
<path d="M12.81 3.17611C12.2962 2.9413 11.7038 2.9413 11.19 3.17611C10.7876 3.36 10.5354 3.68727 10.3638 3.94676C10.192 4.20668 10.0086 4.54867 9.80438 4.92958L3.65165 16.4028C3.47001 16.7414 3.30394 17.0511 3.1928 17.3138C3.07891 17.5831 2.95964 17.9409 3.01321 18.3441C3.08299 18.8693 3.37131 19.3421 3.80886 19.6487C4.14479 19.8841 4.52084 19.9474 4.81523 19.9741C5.10246 20.0001 5.45732 20 5.84546 20H18.1545C18.5427 20 18.8975 20.0001 19.1848 19.9741C19.4792 19.9474 19.8552 19.8841 20.1911 19.6487C20.6287 19.3421 20.917 18.8693 20.9868 18.3441C21.0404 17.9409 20.9211 17.5831 20.8072 17.3138C20.6961 17.051 20.53 16.7414 20.3483 16.4027L14.1956 4.92959C13.9914 4.54869 13.808 4.20667 13.6362 3.94676C13.4646 3.68727 13.2124 3.36 12.81 3.17611Z" fill="white"/>
<path d="M12 8V13" stroke="#FF543D" stroke-width="2" stroke-linecap="round" stroke-linejoin="round"/>
<path d="M13.25 16.25C13.25 16.9404 12.6904 17.5 12 17.5C11.3096 17.5 10.75 16.9404 10.75 16.25C10.75 15.5596 11.3096 15 12 15C12.6904 15 13.25 15.5596 13.25 16.25Z" fill="#FF543D"/>
</svg>
